<svg width="22" height="22" viewBox="0 0 22 22" fill="none" xmlns="http://www.w3.org/2000/svg">
<path d="M11 1.98275C13.937 1.98275 14.2853 1.99375 15.4458 2.04692C18.4268 2.18258 19.8193 3.597 19.9549 6.556C20.0081 7.71558 20.0182 8.06392 20.0182 11.0009C20.0182 13.9388 20.0072 14.2863 19.9549 15.4458C19.8183 18.4021 18.4296 19.8193 15.4458 19.9549C14.2853 20.0081 13.9388 20.0191 11 20.0191C8.063 20.0191 7.71467 20.0081 6.55508 19.9549C3.56675 19.8183 2.18167 18.3975 2.046 15.4449C1.99283 14.2853 1.98183 13.9379 1.98183 11C1.98183 8.063 1.99375 7.71558 2.046 6.55508C2.18258 3.597 3.57133 2.18167 6.55508 2.046C7.71558 1.99375 8.063 1.98275 11 1.98275ZM11 0C8.01258 0 7.63858 0.0128333 6.46525 0.066C2.47042 0.249333 0.25025 2.46583 0.0669167 6.46433C0.0128333 7.63858 0 8.01258 0 11C0 13.9874 0.0128333 14.3623 0.066 15.5357C0.249333 19.5305 2.46583 21.7507 6.46433 21.934C7.63858 21.9872 8.01258 22 11 22C13.9874 22 14.3623 21.9872 15.5357 21.934C19.5268 21.7507 21.7525 19.5342 21.9331 15.5357C21.9872 14.3623 22 13.9874 22 11C22 8.01258 21.9872 7.63858 21.934 6.46525C21.7543 2.47408 19.5351 0.25025 15.5366 0.0669167C14.3623 0.0128333 13.9874 0 11 0V0ZM11 5.3515C7.88058 5.3515 5.3515 7.88058 5.3515 11C5.3515 14.1194 7.88058 16.6494 11 16.6494C14.1194 16.6494 16.6485 14.1203 16.6485 11C16.6485 7.88058 14.1194 5.3515 11 5.3515ZM11 14.6667C8.97508 14.6667 7.33333 13.0258 7.33333 11C7.33333 8.97508 8.97508 7.33333 11 7.33333C13.0249 7.33333 14.6667 8.97508 14.6667 11C14.6667 13.0258 13.0249 14.6667 11 14.6667ZM16.8722 3.80875C16.1425 3.80875 15.5513 4.4 15.5513 5.12875C15.5513 5.8575 16.1425 6.44875 16.8722 6.44875C17.6009 6.44875 18.1912 5.8575 18.1912 5.12875C18.1912 4.4 17.6009 3.80875 16.8722 3.80875Z" fill="#1B263A"/>
</svg>
