<svg width="26" height="21" viewBox="0 0 26 21" fill="none" xmlns="http://www.w3.org/2000/svg">
<path d="M7.94576 20.5333C17.4805 20.5333 22.6943 12.6343 22.6943 5.78481C22.6943 5.56045 22.6897 5.3371 22.6797 5.11476C23.6918 4.38307 24.5715 3.46997 25.2653 2.43055C24.3366 2.84338 23.3371 3.12131 22.2885 3.24663C23.3588 2.60488 24.1804 1.58971 24.568 0.379485C23.5665 0.973226 22.4573 1.40476 21.2764 1.63771C20.3305 0.630121 18.9838 0 17.4926 0C14.63 0 12.3086 2.3214 12.3086 5.18298C12.3086 5.58976 12.3541 5.98541 12.4431 6.3649C8.13476 6.14812 4.31461 4.08544 1.75824 0.948975C1.31306 1.71503 1.05636 2.60488 1.05636 3.55436C1.05636 5.35276 1.97148 6.94045 3.36311 7.86921C2.51267 7.84294 1.71377 7.60949 1.01543 7.2209C1.01467 7.24265 1.01467 7.26385 1.01467 7.2871C1.01467 9.79748 2.80145 11.8935 5.17338 12.3685C4.7378 12.4873 4.27949 12.5509 3.80651 12.5509C3.47301 12.5509 3.14809 12.5181 2.83227 12.4574C3.49221 14.5171 5.40583 16.0158 7.67468 16.0578C5.90053 17.4484 3.66553 18.2766 1.2365 18.2766C0.818606 18.2766 0.405765 18.2528 0 18.2049C2.29412 19.6753 5.01825 20.5333 7.94602 20.5333" fill="#1B263A"/>
</svg>
